<?xml version="1.0" encoding="us-ascii" standalone="no"?><svg xmlns="http://www.w3.org/2000/svg" xmlns:xlink="http://www.w3.org/1999/xlink" contentStyleType="text/css" height="1508px" preserveAspectRatio="none" style="width:1887px;height:1508px;background:#FFFFFF;" version="1.1" viewBox="0 0 1887 1508" width="1887px" zoomAndPan="magnify"><defs/><g><rect fill="#FFFFFF" height="1315.4375" style="stroke:#181818;stroke-width:1.0;" width="10" x="17.5" y="92.6094"/><rect fill="#FFFFFF" height="30" style="stroke:#181818;stroke-width:1.0;" width="10" x="95" y="145.3125"/><rect fill="#FFFFFF" height="30" style="stroke:#181818;stroke-width:1.0;" width="10" x="95" y="413.0703"/><rect fill="#FFFFFF" height="30" style="stroke:#181818;stroke-width:1.0;" width="10" x="95" y="1176.6406"/><rect fill="#FFFFFF" height="30" style="stroke:#181818;stroke-width:1.0;" width="10" x="95" y="1236.9922"/><rect fill="#FFFFFF" height="1262.7344" style="stroke:#181818;stroke-width:1.0;" width="10" x="316" y="114.9609"/><rect fill="#FFFFFF" height="28" style="stroke:#181818;stroke-width:1.0;" width="10" x="321" y="213.6641"/><rect fill="#FFFFFF" height="735.2188" style="stroke:#181818;stroke-width:1.0;" width="10" x="524" y="620.125"/><rect fill="#FFFFFF" height="28" style="stroke:#181818;stroke-width:1.0;" width="10" x="529" y="1037.9375"/><rect fill="#FFFFFF" height="28" style="stroke:#181818;stroke-width:1.0;" width="10" x="529" y="1111.2891"/><rect fill="#FFFFFF" height="28" style="stroke:#181818;stroke-width:1.0;" width="10" x="529" y="1305.3438"/><rect fill="#FFFFFF" height="303.7578" style="stroke:#181818;stroke-width:1.0;" width="10" x="916" y="279.0156"/><rect fill="#FFFFFF" height="28" style="stroke:#181818;stroke-width:1.0;" width="10" x="921" y="554.7734"/><rect fill="#FFFFFF" height="139.7031" style="stroke:#181818;stroke-width:1.0;" width="10" x="916" y="852.8828"/><rect fill="#FFFFFF" height="28" style="stroke:#181818;stroke-width:1.0;" width="10" x="921" y="891.2344"/><rect fill="#FFFFFF" height="28" style="stroke:#181818;stroke-width:1.0;" width="10" x="921" y="964.5859"/><rect fill="#FFFFFF" height="200.0547" style="stroke:#181818;stroke-width:1.0;" width="10" x="1140" y="309.3672"/><rect fill="#FFFFFF" height="28" style="stroke:#181818;stroke-width:1.0;" width="10" x="1145" y="347.7188"/><rect fill="#FFFFFF" height="28" style="stroke:#181818;stroke-width:1.0;" width="10" x="1145" y="481.4219"/><rect fill="#FFFFFF" height="139.7031" style="stroke:#181818;stroke-width:1.0;" width="10" x="1475" y="650.4766"/><rect fill="#FFFFFF" height="28" style="stroke:#181818;stroke-width:1.0;" width="10" x="1480" y="688.8281"/><rect fill="#FFFFFF" height="28" style="stroke:#181818;stroke-width:1.0;" width="10" x="1480" y="762.1797"/><rect fill="none" height="536.1641" style="stroke:#000000;stroke-width:1.5;" width="1072" x="40" y="812.1797"/><line style="stroke:#181818;stroke-width:0.5;stroke-dasharray:5.0,5.0;" x1="22" x2="22" y1="82.6094" y2="1426.0469"/><line style="stroke:#181818;stroke-width:0.5;stroke-dasharray:5.0,5.0;" x1="100" x2="100" y1="82.6094" y2="1426.0469"/><line style="stroke:#181818;stroke-width:0.5;stroke-dasharray:5.0,5.0;" x1="320.5" x2="320.5" y1="82.6094" y2="1426.0469"/><line style="stroke:#181818;stroke-width:0.5;stroke-dasharray:5.0,5.0;" x1="529" x2="529" y1="82.6094" y2="1426.0469"/><line style="stroke:#181818;stroke-width:0.5;stroke-dasharray:5.0,5.0;" x1="921" x2="921" y1="82.6094" y2="1426.0469"/><line style="stroke:#181818;stroke-width:0.5;stroke-dasharray:5.0,5.0;" x1="1144.5" x2="1144.5" y1="82.6094" y2="1426.0469"/><line style="stroke:#181818;stroke-width:0.5;stroke-dasharray:5.0,5.0;" x1="1480" x2="1480" y1="82.6094" y2="1426.0469"/><text fill="#000000" font-family="sans-serif" font-size="14" lengthAdjust="spacing" textLength="29" x="5" y="79.5332">User</text><ellipse cx="22.5" cy="13.5" fill="#E2E2F0" rx="8" ry="8" style="stroke:#181818;stroke-width:0.5;"/><path d="M22.5,21.5 L22.5,48.5 M9.5,29.5 L35.5,29.5 M22.5,48.5 L9.5,63.5 M22.5,48.5 L35.5,63.5 " fill="none" style="stroke:#181818;stroke-width:0.5;"/><text fill="#000000" font-family="sans-serif" font-size="14" lengthAdjust="spacing" textLength="29" x="5" y="1439.5801">User</text><ellipse cx="22.5" cy="1451.1563" fill="#E2E2F0" rx="8" ry="8" style="stroke:#181818;stroke-width:0.5;"/><path d="M22.5,1459.1563 L22.5,1486.1563 M9.5,1467.1563 L35.5,1467.1563 M22.5,1486.1563 L9.5,1501.1563 M22.5,1486.1563 L35.5,1501.1563 " fill="none" style="stroke:#181818;stroke-width:0.5;"/><rect fill="#E2E2F0" height="31.6094" rx="2.5" ry="2.5" style="stroke:#181818;stroke-width:0.5;" width="100" x="50" y="50"/><text fill="#000000" font-family="sans-serif" font-size="14" lengthAdjust="spacing" textLength="86" x="57" y="71.5332">Database API</text><rect fill="#E2E2F0" height="31.6094" rx="2.5" ry="2.5" style="stroke:#181818;stroke-width:0.5;" width="100" x="50" y="1425.0469"/><text fill="#000000" font-family="sans-serif" font-size="14" lengthAdjust="spacing" textLength="86" x="57" y="1446.5801">Database API</text><rect fill="#E2E2F0" height="31.6094" rx="2.5" ry="2.5" style="stroke:#181818;stroke-width:0.5;" width="123" x="259.5" y="50"/><text fill="#000000" font-family="sans-serif" font-size="14" lengthAdjust="spacing" textLength="109" x="266.5" y="71.5332">Endpoint Handler</text><rect fill="#E2E2F0" height="31.6094" rx="2.5" ry="2.5" style="stroke:#181818;stroke-width:0.5;" width="123" x="259.5" y="1425.0469"/><text fill="#000000" font-family="sans-serif" font-size="14" lengthAdjust="spacing" textLength="109" x="266.5" y="1446.5801">Endpoint Handler</text><rect fill="#E2E2F0" height="31.6094" rx="2.5" ry="2.5" style="stroke:#181818;stroke-width:0.5;" width="120" x="469" y="50"/><text fill="#000000" font-family="sans-serif" font-size="14" lengthAdjust="spacing" textLength="106" x="476" y="71.5332">Training Pipeline</text><rect fill="#E2E2F0" height="31.6094" rx="2.5" ry="2.5" style="stroke:#181818;stroke-width:0.5;" width="120" x="469" y="1425.0469"/><text fill="#000000" font-family="sans-serif" font-size="14" lengthAdjust="spacing" textLength="106" x="476" y="1446.5801">Training Pipeline</text><rect fill="#E2E2F0" height="31.6094" rx="2.5" ry="2.5" style="stroke:#181818;stroke-width:0.5;" width="100" x="871" y="50"/><text fill="#000000" font-family="sans-serif" font-size="14" lengthAdjust="spacing" textLength="86" x="878" y="71.5332">Model Builder</text><rect fill="#E2E2F0" height="31.6094" rx="2.5" ry="2.5" style="stroke:#181818;stroke-width:0.5;" width="100" x="871" y="1425.0469"/><text fill="#000000" font-family="sans-serif" font-size="14" lengthAdjust="spacing" textLength="86" x="878" y="1446.5801">Model Builder</text><rect fill="#E2E2F0" height="31.6094" rx="2.5" ry="2.5" style="stroke:#181818;stroke-width:0.5;" width="133" x="1078.5" y="50"/><text fill="#000000" font-family="sans-serif" font-size="14" lengthAdjust="spacing" textLength="119" x="1085.5" y="71.5332">Feature Generator</text><rect fill="#E2E2F0" height="31.6094" rx="2.5" ry="2.5" style="stroke:#181818;stroke-width:0.5;" width="133" x="1078.5" y="1425.0469"/><text fill="#000000" font-family="sans-serif" font-size="14" lengthAdjust="spacing" textLength="119" x="1085.5" y="1446.5801">Feature Generator</text><rect fill="#E2E2F0" height="31.6094" rx="2.5" ry="2.5" style="stroke:#181818;stroke-width:0.5;" width="92" x="1434" y="50"/><text fill="#000000" font-family="sans-serif" font-size="14" lengthAdjust="spacing" textLength="78" x="1441" y="71.5332">Data Splitter</text><rect fill="#E2E2F0" height="31.6094" rx="2.5" ry="2.5" style="stroke:#181818;stroke-width:0.5;" width="92" x="1434" y="1425.0469"/><text fill="#000000" font-family="sans-serif" font-size="14" lengthAdjust="spacing" textLength="78" x="1441" y="1446.5801">Data Splitter</text><rect fill="#FFFFFF" height="1315.4375" style="stroke:#181818;stroke-width:1.0;" width="10" x="17.5" y="92.6094"/><rect fill="#FFFFFF" height="30" style="stroke:#181818;stroke-width:1.0;" width="10" x="95" y="145.3125"/><rect fill="#FFFFFF" height="30" style="stroke:#181818;stroke-width:1.0;" width="10" x="95" y="413.0703"/><rect fill="#FFFFFF" height="30" style="stroke:#181818;stroke-width:1.0;" width="10" x="95" y="1176.6406"/><rect fill="#FFFFFF" height="30" style="stroke:#181818;stroke-width:1.0;" width="10" x="95" y="1236.9922"/><rect fill="#FFFFFF" height="1262.7344" style="stroke:#181818;stroke-width:1.0;" width="10" x="316" y="114.9609"/><rect fill="#FFFFFF" height="28" style="stroke:#181818;stroke-width:1.0;" width="10" x="321" y="213.6641"/><rect fill="#FFFFFF" height="735.2188" style="stroke:#181818;stroke-width:1.0;" width="10" x="524" y="620.125"/><rect fill="#FFFFFF" height="28" style="stroke:#181818;stroke-width:1.0;" width="10" x="529" y="1037.9375"/><rect fill="#FFFFFF" height="28" style="stroke:#181818;stroke-width:1.0;" width="10" x="529" y="1111.2891"/><rect fill="#FFFFFF" height="28" style="stroke:#181818;stroke-width:1.0;" width="10" x="529" y="1305.3438"/><rect fill="#FFFFFF" height="303.7578" style="stroke:#181818;stroke-width:1.0;" width="10" x="916" y="279.0156"/><rect fill="#FFFFFF" height="28" style="stroke:#181818;stroke-width:1.0;" width="10" x="921" y="554.7734"/><rect fill="#FFFFFF" height="139.7031" style="stroke:#181818;stroke-width:1.0;" width="10" x="916" y="852.8828"/><rect fill="#FFFFFF" height="28" style="stroke:#181818;stroke-width:1.0;" width="10" x="921" y="891.2344"/><rect fill="#FFFFFF" height="28" style="stroke:#181818;stroke-width:1.0;" width="10" x="921" y="964.5859"/><rect fill="#FFFFFF" height="200.0547" style="stroke:#181818;stroke-width:1.0;" width="10" x="1140" y="309.3672"/><rect fill="#FFFFFF" height="28" style="stroke:#181818;stroke-width:1.0;" width="10" x="1145" y="347.7188"/><rect fill="#FFFFFF" height="28" style="stroke:#181818;stroke-width:1.0;" width="10" x="1145" y="481.4219"/><rect fill="#FFFFFF" height="139.7031" style="stroke:#181818;stroke-width:1.0;" width="10" x="1475" y="650.4766"/><rect fill="#FFFFFF" height="28" style="stroke:#181818;stroke-width:1.0;" width="10" x="1480" y="688.8281"/><rect fill="#FFFFFF" height="28" style="stroke:#181818;stroke-width:1.0;" width="10" x="1480" y="762.1797"/><polygon fill="#181818" points="304,110.9609,314,114.9609,304,118.9609,308,114.9609" style="stroke:#181818;stroke-width:1.0;"/><line style="stroke:#181818;stroke-width:1.0;" x1="27.5" x2="310" y1="114.9609" y2="114.9609"/><text fill="#000000" font-family="sans-serif" font-size="13" lengthAdjust="spacing" textLength="84" x="34.5" y="110.1045">train(config_id)</text><polygon fill="#181818" points="116,141.3125,106,145.3125,116,149.3125,112,145.3125" style="stroke:#181818;stroke-width:1.0;"/><line style="stroke:#181818;stroke-width:1.0;" x1="110" x2="315" y1="145.3125" y2="145.3125"/><text fill="#000000" font-family="sans-serif" font-size="13" lengthAdjust="spacing" textLength="192" x="122" y="140.4561">config = retrieve_config(model_id)</text><line style="stroke:#181818;stroke-width:1.0;" x1="331" x2="373" y1="205.6641" y2="205.6641"/><line style="stroke:#181818;stroke-width:1.0;" x1="373" x2="373" y1="205.6641" y2="218.6641"/><line style="stroke:#181818;stroke-width:1.0;" x1="332" x2="373" y1="218.6641" y2="218.6641"/><polygon fill="#181818" points="342,214.6641,332,218.6641,342,222.6641,338,218.6641" style="stroke:#181818;stroke-width:1.0;"/><text fill="#000000" font-family="sans-serif" font-size="13" lengthAdjust="spacing" textLength="60" x="338" y="200.8076">run(config)</text><polygon fill="#181818" points="904,275.0156,914,279.0156,904,283.0156,908,279.0156" style="stroke:#181818;stroke-width:1.0;"/><line style="stroke:#181818;stroke-width:1.0;" x1="326" x2="910" y1="279.0156" y2="279.0156"/><text fill="#000000" font-family="sans-serif" font-size="13" lengthAdjust="spacing" textLength="266" x="333" y="274.1592">factory, features = build_model_factory(config)</text><polygon fill="#181818" points="1128,305.3672,1138,309.3672,1128,313.3672,1132,309.3672" style="stroke:#181818;stroke-width:1.0;"/><line style="stroke:#181818;stroke-width:1.0;" x1="926" x2="1134" y1="309.3672" y2="309.3672"/><text fill="#000000" font-family="sans-serif" font-size="13" lengthAdjust="spacing" textLength="154" x="933" y="304.5107">features = get_data(config)</text><line style="stroke:#181818;stroke-width:1.0;" x1="1155" x2="1197" y1="339.7188" y2="339.7188"/><line style="stroke:#181818;stroke-width:1.0;" x1="1197" x2="1197" y1="339.7188" y2="352.7188"/><line style="stroke:#181818;stroke-width:1.0;" x1="1156" x2="1197" y1="352.7188" y2="352.7188"/><polygon fill="#181818" points="1166,348.7188,1156,352.7188,1166,356.7188,1162,352.7188" style="stroke:#181818;stroke-width:1.0;"/><text fill="#000000" font-family="sans-serif" font-size="13" lengthAdjust="spacing" textLength="311" x="1162" y="334.8623">feature_factory = get_factory(config.feature_generator)</text><polygon fill="#181818" points="116,409.0703,106,413.0703,116,417.0703,112,413.0703" style="stroke:#181818;stroke-width:1.0;"/><line style="stroke:#181818;stroke-width:1.0;" x1="110" x2="1139" y1="413.0703" y2="413.0703"/><text fill="#000000" font-family="sans-serif" font-size="13" lengthAdjust="spacing" textLength="179" x="122" y="408.2139">data = fetch_data(config.query)</text><line style="stroke:#181818;stroke-width:1.0;" x1="1155" x2="1197" y1="473.4219" y2="473.4219"/><line style="stroke:#181818;stroke-width:1.0;" x1="1197" x2="1197" y1="473.4219" y2="486.4219"/><line style="stroke:#181818;stroke-width:1.0;" x1="1156" x2="1197" y1="486.4219" y2="486.4219"/><polygon fill="#181818" points="1166,482.4219,1156,486.4219,1166,490.4219,1162,486.4219" style="stroke:#181818;stroke-width:1.0;"/><text fill="#000000" font-family="sans-serif" font-size="13" lengthAdjust="spacing" textLength="287" x="1162" y="468.5654">features = feature_factory.generate_features(data)</text><line style="stroke:#181818;stroke-width:1.0;" x1="931" x2="973" y1="546.7734" y2="546.7734"/><line style="stroke:#181818;stroke-width:1.0;" x1="973" x2="973" y1="546.7734" y2="559.7734"/><line style="stroke:#181818;stroke-width:1.0;" x1="932" x2="973" y1="559.7734" y2="559.7734"/><polygon fill="#181818" points="942,555.7734,932,559.7734,942,563.7734,938,559.7734" style="stroke:#181818;stroke-width:1.0;"/><text fill="#000000" font-family="sans-serif" font-size="13" lengthAdjust="spacing" textLength="200" x="938" y="541.917">factory = &lt;model builder callback&gt;</text><polygon fill="#181818" points="512,616.125,522,620.125,512,624.125,516,620.125" style="stroke:#181818;stroke-width:1.0;"/><line style="stroke:#181818;stroke-width:1.0;" x1="326" x2="518" y1="620.125" y2="620.125"/><text fill="#000000" font-family="sans-serif" font-size="13" lengthAdjust="spacing" textLength="179" x="333" y="615.2686">invoke(factory, features, config)</text><polygon fill="#181818" points="1463,646.4766,1473,650.4766,1463,654.4766,1467,650.4766" style="stroke:#181818;stroke-width:1.0;"/><line style="stroke:#181818;stroke-width:1.0;" x1="534" x2="1469" y1="650.4766" y2="650.4766"/><text fill="#000000" font-family="sans-serif" font-size="13" lengthAdjust="spacing" textLength="382" x="541" y="645.6201">training_data, validation_data, testing_data = split(features, config)</text><line style="stroke:#181818;stroke-width:1.0;" x1="1490" x2="1532" y1="680.8281" y2="680.8281"/><line style="stroke:#181818;stroke-width:1.0;" x1="1532" x2="1532" y1="680.8281" y2="693.8281"/><line style="stroke:#181818;stroke-width:1.0;" x1="1491" x2="1532" y1="693.8281" y2="693.8281"/><polygon fill="#181818" points="1501,689.8281,1491,693.8281,1501,697.8281,1497,693.8281" style="stroke:#181818;stroke-width:1.0;"/><text fill="#000000" font-family="sans-serif" font-size="13" lengthAdjust="spacing" textLength="161" x="1497" y="675.9717">splitter = get_splitter(config)</text><line style="stroke:#181818;stroke-width:1.0;" x1="1490" x2="1532" y1="754.1797" y2="754.1797"/><line style="stroke:#181818;stroke-width:1.0;" x1="1532" x2="1532" y1="754.1797" y2="767.1797"/><line style="stroke:#181818;stroke-width:1.0;" x1="1491" x2="1532" y1="767.1797" y2="767.1797"/><polygon fill="#181818" points="1501,763.1797,1491,767.1797,1501,771.1797,1497,767.1797" style="stroke:#181818;stroke-width:1.0;"/><text fill="#000000" font-family="sans-serif" font-size="13" lengthAdjust="spacing" textLength="383" x="1497" y="749.3232">training_data, validation_data, testing_data = splitter.split(features)</text><path d="M40,812.1797 L113,812.1797 L113,820.5313 L103,830.5313 L40,830.5313 L40,812.1797 " fill="#EEEEEE" style="stroke:#000000;stroke-width:1.5;"/><rect fill="none" height="536.1641" style="stroke:#000000;stroke-width:1.5;" width="1072" x="40" y="812.1797"/><text fill="#000000" font-family="sans-serif" font-size="13" font-weight="bold" lengthAdjust="spacing" textLength="28" x="55" y="826.6748">loop</text><text fill="#000000" font-family="sans-serif" font-size="11" font-weight="bold" lengthAdjust="spacing" textLength="444" x="128" y="825.5986">[foreach (train, validation, test) in zip(training_data, validation_data, testing_data)]</text><polygon fill="#181818" points="904,848.8828,914,852.8828,904,856.8828,908,852.8828" style="stroke:#181818;stroke-width:1.0;"/><line style="stroke:#181818;stroke-width:1.0;" x1="534" x2="910" y1="852.8828" y2="852.8828"/><text fill="#000000" font-family="sans-serif" font-size="13" lengthAdjust="spacing" textLength="98" x="541" y="848.0264">model = factory()</text><line style="stroke:#181818;stroke-width:1.0;" x1="931" x2="973" y1="883.2344" y2="883.2344"/><line style="stroke:#181818;stroke-width:1.0;" x1="973" x2="973" y1="883.2344" y2="896.2344"/><line style="stroke:#181818;stroke-width:1.0;" x1="932" x2="973" y1="896.2344" y2="896.2344"/><polygon fill="#181818" points="942,892.2344,932,896.2344,942,900.2344,938,896.2344" style="stroke:#181818;stroke-width:1.0;"/><text fill="#000000" font-family="sans-serif" font-size="13" lengthAdjust="spacing" textLength="159" x="938" y="878.3779">builder = get_builder(config)</text><line style="stroke:#181818;stroke-width:1.0;" x1="931" x2="973" y1="956.5859" y2="956.5859"/><line style="stroke:#181818;stroke-width:1.0;" x1="973" x2="973" y1="956.5859" y2="969.5859"/><line style="stroke:#181818;stroke-width:1.0;" x1="932" x2="973" y1="969.5859" y2="969.5859"/><polygon fill="#181818" points="942,965.5859,932,969.5859,942,973.5859,938,969.5859" style="stroke:#181818;stroke-width:1.0;"/><text fill="#000000" font-family="sans-serif" font-size="13" lengthAdjust="spacing" textLength="162" x="938" y="951.7295">model = builder.build(config)</text><line style="stroke:#181818;stroke-width:1.0;" x1="539" x2="581" y1="1029.9375" y2="1029.9375"/><line style="stroke:#181818;stroke-width:1.0;" x1="581" x2="581" y1="1029.9375" y2="1042.9375"/><line style="stroke:#181818;stroke-width:1.0;" x1="540" x2="581" y1="1042.9375" y2="1042.9375"/><polygon fill="#181818" points="550,1038.9375,540,1042.9375,550,1046.9375,546,1042.9375" style="stroke:#181818;stroke-width:1.0;"/><text fill="#000000" font-family="sans-serif" font-size="13" lengthAdjust="spacing" textLength="368" x="546" y="1025.0811">trained_model, training_stats = model.fit(train, validation, config)</text><line style="stroke:#181818;stroke-width:1.0;" x1="539" x2="581" y1="1103.2891" y2="1103.2891"/><line style="stroke:#181818;stroke-width:1.0;" x1="581" x2="581" y1="1103.2891" y2="1116.2891"/><line style="stroke:#181818;stroke-width:1.0;" x1="540" x2="581" y1="1116.2891" y2="1116.2891"/><polygon fill="#181818" points="550,1112.2891,540,1116.2891,550,1120.2891,546,1116.2891" style="stroke:#181818;stroke-width:1.0;"/><text fill="#000000" font-family="sans-serif" font-size="13" lengthAdjust="spacing" textLength="207" x="546" y="1098.4326">testing_stats = model.evaluate(test)</text><polygon fill="#181818" points="116,1172.6406,106,1176.6406,116,1180.6406,112,1176.6406" style="stroke:#181818;stroke-width:1.0;"/><line style="stroke:#181818;stroke-width:1.0;" x1="110" x2="523" y1="1176.6406" y2="1176.6406"/><text fill="#000000" font-family="sans-serif" font-size="13" lengthAdjust="spacing" textLength="307" x="122" y="1171.7842">identifier = upload_stats(training_stats, testing_stats)</text><polygon fill="#181818" points="116,1232.9922,106,1236.9922,116,1240.9922,112,1236.9922" style="stroke:#181818;stroke-width:1.0;"/><line style="stroke:#181818;stroke-width:1.0;" x1="110" x2="523" y1="1236.9922" y2="1236.9922"/><text fill="#000000" font-family="sans-serif" font-size="13" lengthAdjust="spacing" textLength="233" x="122" y="1232.1357">identifier = upload_model(trained_model)</text><line style="stroke:#181818;stroke-width:1.0;" x1="539" x2="581" y1="1297.3438" y2="1297.3438"/><line style="stroke:#181818;stroke-width:1.0;" x1="581" x2="581" y1="1297.3438" y2="1310.3438"/><line style="stroke:#181818;stroke-width:1.0;" x1="540" x2="581" y1="1310.3438" y2="1310.3438"/><polygon fill="#181818" points="550,1306.3438,540,1310.3438,550,1314.3438,546,1310.3438" style="stroke:#181818;stroke-width:1.0;"/><text fill="#000000" font-family="sans-serif" font-size="13" lengthAdjust="spacing" textLength="88" x="546" y="1292.4873">store identifiers</text><polygon fill="#181818" points="332,1373.6953,322,1377.6953,332,1381.6953,328,1377.6953" style="stroke:#181818;stroke-width:1.0;"/><line style="stroke:#181818;stroke-width:1.0;stroke-dasharray:2.0,2.0;" x1="326" x2="528" y1="1377.6953" y2="1377.6953"/><text fill="#000000" font-family="sans-serif" font-size="13" lengthAdjust="spacing" textLength="55" x="338" y="1372.8389">identifiers</text><polygon fill="#181818" points="33.5,1404.0469,23.5,1408.0469,33.5,1412.0469,29.5,1408.0469" style="stroke:#181818;stroke-width:1.0;"/><line style="stroke:#181818;stroke-width:1.0;stroke-dasharray:2.0,2.0;" x1="27.5" x2="320" y1="1408.0469" y2="1408.0469"/><text fill="#000000" font-family="sans-serif" font-size="13" lengthAdjust="spacing" textLength="55" x="39.5" y="1403.1904">identifiers</text><!--SRC=[pLVRRgCm47tdAqPvebBA1qHjfLRjNXvMghIxpv43GsgLDImsaRfVlxuI6mmXbPhTFgGmFZC-Ppmp0Cb5tSBg9yTs1OI3kaWQqWgQquOm0Qj78iYES8JxvwyQylXmtr08GK-iQ6eghxuGLbGsbZE6q1yjeOooFJpJ1YlAK6ETrHa7yR_L1LRmqD6giC6rnHf2x2SaeciHFYF3baXv6c-jlN4i4hut5HN2ndSt04cIa5pG0n6eqmE9_hs-wmLkG2ZwQLwpakwtjBXAGFxrNdrsjBc_an5qBZTW7E4MMXGjnGDkZINzfLJs0OEWshKt5nXPy7SwScqxnpGIjJ-pIE3HcX_VFuyDb4JLrTiQIfDsBhNjrEBMABBh8nu1b-28VOI_eFOUdkt6ttQFObl8uutk5UmtAf4XSWYOtTjfj1H2nPa3xPtVcDSiDu0etZkjTwcnzQZo9NcNAF8NFtdPxmxRjnDKmyASO1S7dPLWhXa6kSviEgN1ObB5_lAvNOeTLdAqYwJE6zqsfeKaCYTLjIFvwzrqCGUHOOxWP9kTnFZzFnpW6w3iKBzYEXe5QvZj-c6W03LwJCYTtQIsKrYkwf9Tmu5KL5xHcbc3G2xSiamgLuxfFAs0MlzC647wbO0FTrOp0jpjv2IARdQg5YTnSKxloP5qpC9aVJJt22PCUbNN3PHrAt4la6fHlXYZuqhM8FoXJNgEwB6qMD65ZMgwyzOrR7eYFPCTjsmik2bWgihUpHRLURildG_BsBhSM9wP_lyFsKvWOT6nZwUSBYsqxpNhOtjnGOHwGcbxLihUYHJfea4mEn0ZgaxY5mgpFH4AGKc_axkakh_-0-BsZOKMo0GjgMwBhgbgKXZcQNWYwr3NnxtAdCbLPpSDYkcotCO5mEKeGuyiXmiUDxB2pFZaNE_-fUJc-ZhsLZBK4_l0qHzuol_urUJv9PwB-I3y2m00]--></g></svg>