<?xml version="1.0" encoding="us-ascii" standalone="no"?><svg xmlns="http://www.w3.org/2000/svg" xmlns:xlink="http://www.w3.org/1999/xlink" contentStyleType="text/css" height="1404px" preserveAspectRatio="none" style="width:2009px;height:1404px;background:#FFFFFF;" version="1.1" viewBox="0 0 2009 1404" width="2009px" zoomAndPan="magnify"><defs/><g><rect fill="#FFFFFF" height="1212.0859" style="stroke:#181818;stroke-width:1.0;" width="10" x="17.5" y="92.6094"/><rect fill="#FFFFFF" height="30" style="stroke:#181818;stroke-width:1.0;" width="10" x="95" y="145.3125"/><rect fill="#FFFFFF" height="30" style="stroke:#181818;stroke-width:1.0;" width="10" x="95" y="413.4219"/><rect fill="#FFFFFF" height="30" style="stroke:#181818;stroke-width:1.0;" width="10" x="95" y="1073.2891"/><rect fill="#FFFFFF" height="30" style="stroke:#181818;stroke-width:1.0;" width="10" x="95" y="1133.6406"/><rect fill="#FFFFFF" height="1189.7344" style="stroke:#181818;stroke-width:1.0;" width="10" x="316" y="114.9609"/><rect fill="#FFFFFF" height="1060.6797" style="stroke:#181818;stroke-width:1.0;" width="10" x="321" y="213.6641"/><rect fill="#FFFFFF" height="1025.3281" style="stroke:#181818;stroke-width:1.0;" width="10" x="529" y="249.0156"/><rect fill="#FFFFFF" height="28" style="stroke:#181818;stroke-width:1.0;" width="10" x="534" y="1007.9375"/><rect fill="#FFFFFF" height="28" style="stroke:#181818;stroke-width:1.0;" width="10" x="534" y="1201.9922"/><rect fill="#FFFFFF" height="303.7578" style="stroke:#181818;stroke-width:1.0;" width="10" x="1038" y="279.3672"/><rect fill="#FFFFFF" height="28" style="stroke:#181818;stroke-width:1.0;" width="10" x="1043" y="555.125"/><rect fill="#FFFFFF" height="139.7031" style="stroke:#181818;stroke-width:1.0;" width="10" x="1038" y="822.8828"/><rect fill="#FFFFFF" height="28" style="stroke:#181818;stroke-width:1.0;" width="10" x="1043" y="861.2344"/><rect fill="#FFFFFF" height="28" style="stroke:#181818;stroke-width:1.0;" width="10" x="1043" y="934.5859"/><rect fill="#FFFFFF" height="200.0547" style="stroke:#181818;stroke-width:1.0;" width="10" x="1262" y="309.7188"/><rect fill="#FFFFFF" height="28" style="stroke:#181818;stroke-width:1.0;" width="10" x="1267" y="348.0703"/><rect fill="#FFFFFF" height="28" style="stroke:#181818;stroke-width:1.0;" width="10" x="1267" y="481.7734"/><rect fill="#FFFFFF" height="139.7031" style="stroke:#181818;stroke-width:1.0;" width="10" x="1597" y="620.4766"/><rect fill="#FFFFFF" height="28" style="stroke:#181818;stroke-width:1.0;" width="10" x="1602" y="658.8281"/><rect fill="#FFFFFF" height="28" style="stroke:#181818;stroke-width:1.0;" width="10" x="1602" y="732.1797"/><rect fill="none" height="462.8125" style="stroke:#000000;stroke-width:1.5;" width="1194" x="40" y="782.1797"/><line style="stroke:#181818;stroke-width:0.5;stroke-dasharray:5.0,5.0;" x1="22" x2="22" y1="82.6094" y2="1322.6953"/><line style="stroke:#181818;stroke-width:0.5;stroke-dasharray:5.0,5.0;" x1="100" x2="100" y1="82.6094" y2="1322.6953"/><line style="stroke:#181818;stroke-width:0.5;stroke-dasharray:5.0,5.0;" x1="320.5" x2="320.5" y1="82.6094" y2="1322.6953"/><line style="stroke:#181818;stroke-width:0.5;stroke-dasharray:5.0,5.0;" x1="534" x2="534" y1="82.6094" y2="1322.6953"/><line style="stroke:#181818;stroke-width:0.5;stroke-dasharray:5.0,5.0;" x1="1043" x2="1043" y1="82.6094" y2="1322.6953"/><line style="stroke:#181818;stroke-width:0.5;stroke-dasharray:5.0,5.0;" x1="1266.5" x2="1266.5" y1="82.6094" y2="1322.6953"/><line style="stroke:#181818;stroke-width:0.5;stroke-dasharray:5.0,5.0;" x1="1602" x2="1602" y1="82.6094" y2="1322.6953"/><text fill="#000000" font-family="sans-serif" font-size="14" lengthAdjust="spacing" textLength="29" x="5" y="79.5332">User</text><ellipse cx="22.5" cy="13.5" fill="#E2E2F0" rx="8" ry="8" style="stroke:#181818;stroke-width:0.5;"/><path d="M22.5,21.5 L22.5,48.5 M9.5,29.5 L35.5,29.5 M22.5,48.5 L9.5,63.5 M22.5,48.5 L35.5,63.5 " fill="none" style="stroke:#181818;stroke-width:0.5;"/><text fill="#000000" font-family="sans-serif" font-size="14" lengthAdjust="spacing" textLength="29" x="5" y="1336.2285">User</text><ellipse cx="22.5" cy="1347.8047" fill="#E2E2F0" rx="8" ry="8" style="stroke:#181818;stroke-width:0.5;"/><path d="M22.5,1355.8047 L22.5,1382.8047 M9.5,1363.8047 L35.5,1363.8047 M22.5,1382.8047 L9.5,1397.8047 M22.5,1382.8047 L35.5,1397.8047 " fill="none" style="stroke:#181818;stroke-width:0.5;"/><rect fill="#E2E2F0" height="31.6094" rx="2.5" ry="2.5" style="stroke:#181818;stroke-width:0.5;" width="100" x="50" y="50"/><text fill="#000000" font-family="sans-serif" font-size="14" lengthAdjust="spacing" textLength="86" x="57" y="71.5332">Database API</text><rect fill="#E2E2F0" height="31.6094" rx="2.5" ry="2.5" style="stroke:#181818;stroke-width:0.5;" width="100" x="50" y="1321.6953"/><text fill="#000000" font-family="sans-serif" font-size="14" lengthAdjust="spacing" textLength="86" x="57" y="1343.2285">Database API</text><rect fill="#E2E2F0" height="31.6094" rx="2.5" ry="2.5" style="stroke:#181818;stroke-width:0.5;" width="123" x="259.5" y="50"/><text fill="#000000" font-family="sans-serif" font-size="14" lengthAdjust="spacing" textLength="109" x="266.5" y="71.5332">Endpoint Handler</text><rect fill="#E2E2F0" height="31.6094" rx="2.5" ry="2.5" style="stroke:#181818;stroke-width:0.5;" width="123" x="259.5" y="1321.6953"/><text fill="#000000" font-family="sans-serif" font-size="14" lengthAdjust="spacing" textLength="109" x="266.5" y="1343.2285">Endpoint Handler</text><rect fill="#E2E2F0" height="31.6094" rx="2.5" ry="2.5" style="stroke:#181818;stroke-width:0.5;" width="120" x="474" y="50"/><text fill="#000000" font-family="sans-serif" font-size="14" lengthAdjust="spacing" textLength="106" x="481" y="71.5332">Training Pipeline</text><rect fill="#E2E2F0" height="31.6094" rx="2.5" ry="2.5" style="stroke:#181818;stroke-width:0.5;" width="120" x="474" y="1321.6953"/><text fill="#000000" font-family="sans-serif" font-size="14" lengthAdjust="spacing" textLength="106" x="481" y="1343.2285">Training Pipeline</text><rect fill="#E2E2F0" height="31.6094" rx="2.5" ry="2.5" style="stroke:#181818;stroke-width:0.5;" width="100" x="993" y="50"/><text fill="#000000" font-family="sans-serif" font-size="14" lengthAdjust="spacing" textLength="86" x="1000" y="71.5332">Model Builder</text><rect fill="#E2E2F0" height="31.6094" rx="2.5" ry="2.5" style="stroke:#181818;stroke-width:0.5;" width="100" x="993" y="1321.6953"/><text fill="#000000" font-family="sans-serif" font-size="14" lengthAdjust="spacing" textLength="86" x="1000" y="1343.2285">Model Builder</text><rect fill="#E2E2F0" height="31.6094" rx="2.5" ry="2.5" style="stroke:#181818;stroke-width:0.5;" width="133" x="1200.5" y="50"/><text fill="#000000" font-family="sans-serif" font-size="14" lengthAdjust="spacing" textLength="119" x="1207.5" y="71.5332">Feature Generator</text><rect fill="#E2E2F0" height="31.6094" rx="2.5" ry="2.5" style="stroke:#181818;stroke-width:0.5;" width="133" x="1200.5" y="1321.6953"/><text fill="#000000" font-family="sans-serif" font-size="14" lengthAdjust="spacing" textLength="119" x="1207.5" y="1343.2285">Feature Generator</text><rect fill="#E2E2F0" height="31.6094" rx="2.5" ry="2.5" style="stroke:#181818;stroke-width:0.5;" width="92" x="1556" y="50"/><text fill="#000000" font-family="sans-serif" font-size="14" lengthAdjust="spacing" textLength="78" x="1563" y="71.5332">Data Splitter</text><rect fill="#E2E2F0" height="31.6094" rx="2.5" ry="2.5" style="stroke:#181818;stroke-width:0.5;" width="92" x="1556" y="1321.6953"/><text fill="#000000" font-family="sans-serif" font-size="14" lengthAdjust="spacing" textLength="78" x="1563" y="1343.2285">Data Splitter</text><rect fill="#FFFFFF" height="1212.0859" style="stroke:#181818;stroke-width:1.0;" width="10" x="17.5" y="92.6094"/><rect fill="#FFFFFF" height="30" style="stroke:#181818;stroke-width:1.0;" width="10" x="95" y="145.3125"/><rect fill="#FFFFFF" height="30" style="stroke:#181818;stroke-width:1.0;" width="10" x="95" y="413.4219"/><rect fill="#FFFFFF" height="30" style="stroke:#181818;stroke-width:1.0;" width="10" x="95" y="1073.2891"/><rect fill="#FFFFFF" height="30" style="stroke:#181818;stroke-width:1.0;" width="10" x="95" y="1133.6406"/><rect fill="#FFFFFF" height="1189.7344" style="stroke:#181818;stroke-width:1.0;" width="10" x="316" y="114.9609"/><rect fill="#FFFFFF" height="1060.6797" style="stroke:#181818;stroke-width:1.0;" width="10" x="321" y="213.6641"/><rect fill="#FFFFFF" height="1025.3281" style="stroke:#181818;stroke-width:1.0;" width="10" x="529" y="249.0156"/><rect fill="#FFFFFF" height="28" style="stroke:#181818;stroke-width:1.0;" width="10" x="534" y="1007.9375"/><rect fill="#FFFFFF" height="28" style="stroke:#181818;stroke-width:1.0;" width="10" x="534" y="1201.9922"/><rect fill="#FFFFFF" height="303.7578" style="stroke:#181818;stroke-width:1.0;" width="10" x="1038" y="279.3672"/><rect fill="#FFFFFF" height="28" style="stroke:#181818;stroke-width:1.0;" width="10" x="1043" y="555.125"/><rect fill="#FFFFFF" height="139.7031" style="stroke:#181818;stroke-width:1.0;" width="10" x="1038" y="822.8828"/><rect fill="#FFFFFF" height="28" style="stroke:#181818;stroke-width:1.0;" width="10" x="1043" y="861.2344"/><rect fill="#FFFFFF" height="28" style="stroke:#181818;stroke-width:1.0;" width="10" x="1043" y="934.5859"/><rect fill="#FFFFFF" height="200.0547" style="stroke:#181818;stroke-width:1.0;" width="10" x="1262" y="309.7188"/><rect fill="#FFFFFF" height="28" style="stroke:#181818;stroke-width:1.0;" width="10" x="1267" y="348.0703"/><rect fill="#FFFFFF" height="28" style="stroke:#181818;stroke-width:1.0;" width="10" x="1267" y="481.7734"/><rect fill="#FFFFFF" height="139.7031" style="stroke:#181818;stroke-width:1.0;" width="10" x="1597" y="620.4766"/><rect fill="#FFFFFF" height="28" style="stroke:#181818;stroke-width:1.0;" width="10" x="1602" y="658.8281"/><rect fill="#FFFFFF" height="28" style="stroke:#181818;stroke-width:1.0;" width="10" x="1602" y="732.1797"/><polygon fill="#181818" points="304,110.9609,314,114.9609,304,118.9609,308,114.9609" style="stroke:#181818;stroke-width:1.0;"/><line style="stroke:#181818;stroke-width:1.0;" x1="27.5" x2="310" y1="114.9609" y2="114.9609"/><text fill="#000000" font-family="sans-serif" font-size="13" lengthAdjust="spacing" textLength="84" x="34.5" y="110.1045">train(config_id)</text><polygon fill="#181818" points="116,141.3125,106,145.3125,116,149.3125,112,145.3125" style="stroke:#181818;stroke-width:1.0;"/><line style="stroke:#181818;stroke-width:1.0;" x1="110" x2="315" y1="145.3125" y2="145.3125"/><text fill="#000000" font-family="sans-serif" font-size="13" lengthAdjust="spacing" textLength="192" x="122" y="140.4561">config = retrieve_config(model_id)</text><line style="stroke:#181818;stroke-width:1.0;" x1="326" x2="373" y1="200.6641" y2="200.6641"/><line style="stroke:#181818;stroke-width:1.0;" x1="373" x2="373" y1="200.6641" y2="213.6641"/><line style="stroke:#181818;stroke-width:1.0;" x1="332" x2="373" y1="213.6641" y2="213.6641"/><polygon fill="#181818" points="342,209.6641,332,213.6641,342,217.6641,338,213.6641" style="stroke:#181818;stroke-width:1.0;"/><text fill="#000000" font-family="sans-serif" font-size="13" lengthAdjust="spacing" textLength="60" x="338" y="195.8076">run(config)</text><polygon fill="#181818" points="517,245.0156,527,249.0156,517,253.0156,521,249.0156" style="stroke:#181818;stroke-width:1.0;"/><line style="stroke:#181818;stroke-width:1.0;" x1="331" x2="523" y1="249.0156" y2="249.0156"/><text fill="#000000" font-family="sans-serif" font-size="13" lengthAdjust="spacing" textLength="179" x="338" y="244.1592">invoke(factory, features, config)</text><polygon fill="#181818" points="1026,275.3672,1036,279.3672,1026,283.3672,1030,279.3672" style="stroke:#181818;stroke-width:1.0;"/><line style="stroke:#181818;stroke-width:1.0;" x1="539" x2="1032" y1="279.3672" y2="279.3672"/><text fill="#000000" font-family="sans-serif" font-size="13" lengthAdjust="spacing" textLength="266" x="546" y="274.5107">factory, features = build_model_factory(config)</text><polygon fill="#181818" points="1250,305.7188,1260,309.7188,1250,313.7188,1254,309.7188" style="stroke:#181818;stroke-width:1.0;"/><line style="stroke:#181818;stroke-width:1.0;" x1="1048" x2="1256" y1="309.7188" y2="309.7188"/><text fill="#000000" font-family="sans-serif" font-size="13" lengthAdjust="spacing" textLength="154" x="1055" y="304.8623">features = get_data(config)</text><line style="stroke:#181818;stroke-width:1.0;" x1="1277" x2="1319" y1="340.0703" y2="340.0703"/><line style="stroke:#181818;stroke-width:1.0;" x1="1319" x2="1319" y1="340.0703" y2="353.0703"/><line style="stroke:#181818;stroke-width:1.0;" x1="1278" x2="1319" y1="353.0703" y2="353.0703"/><polygon fill="#181818" points="1288,349.0703,1278,353.0703,1288,357.0703,1284,353.0703" style="stroke:#181818;stroke-width:1.0;"/><text fill="#000000" font-family="sans-serif" font-size="13" lengthAdjust="spacing" textLength="311" x="1284" y="335.2139">feature_factory = get_factory(config.feature_generator)</text><polygon fill="#181818" points="116,409.4219,106,413.4219,116,417.4219,112,413.4219" style="stroke:#181818;stroke-width:1.0;"/><line style="stroke:#181818;stroke-width:1.0;" x1="110" x2="1261" y1="413.4219" y2="413.4219"/><text fill="#000000" font-family="sans-serif" font-size="13" lengthAdjust="spacing" textLength="179" x="122" y="408.5654">data = fetch_data(config.query)</text><line style="stroke:#181818;stroke-width:1.0;" x1="1277" x2="1319" y1="473.7734" y2="473.7734"/><line style="stroke:#181818;stroke-width:1.0;" x1="1319" x2="1319" y1="473.7734" y2="486.7734"/><line style="stroke:#181818;stroke-width:1.0;" x1="1278" x2="1319" y1="486.7734" y2="486.7734"/><polygon fill="#181818" points="1288,482.7734,1278,486.7734,1288,490.7734,1284,486.7734" style="stroke:#181818;stroke-width:1.0;"/><text fill="#000000" font-family="sans-serif" font-size="13" lengthAdjust="spacing" textLength="287" x="1284" y="468.917">features = feature_factory.generate_features(data)</text><line style="stroke:#181818;stroke-width:1.0;" x1="1053" x2="1095" y1="547.125" y2="547.125"/><line style="stroke:#181818;stroke-width:1.0;" x1="1095" x2="1095" y1="547.125" y2="560.125"/><line style="stroke:#181818;stroke-width:1.0;" x1="1054" x2="1095" y1="560.125" y2="560.125"/><polygon fill="#181818" points="1064,556.125,1054,560.125,1064,564.125,1060,560.125" style="stroke:#181818;stroke-width:1.0;"/><text fill="#000000" font-family="sans-serif" font-size="13" lengthAdjust="spacing" textLength="200" x="1060" y="542.2686">factory = &lt;model builder callback&gt;</text><polygon fill="#181818" points="1585,616.4766,1595,620.4766,1585,624.4766,1589,620.4766" style="stroke:#181818;stroke-width:1.0;"/><line style="stroke:#181818;stroke-width:1.0;" x1="539" x2="1591" y1="620.4766" y2="620.4766"/><text fill="#000000" font-family="sans-serif" font-size="13" lengthAdjust="spacing" textLength="382" x="546" y="615.6201">training_data, validation_data, testing_data = split(features, config)</text><line style="stroke:#181818;stroke-width:1.0;" x1="1612" x2="1654" y1="650.8281" y2="650.8281"/><line style="stroke:#181818;stroke-width:1.0;" x1="1654" x2="1654" y1="650.8281" y2="663.8281"/><line style="stroke:#181818;stroke-width:1.0;" x1="1613" x2="1654" y1="663.8281" y2="663.8281"/><polygon fill="#181818" points="1623,659.8281,1613,663.8281,1623,667.8281,1619,663.8281" style="stroke:#181818;stroke-width:1.0;"/><text fill="#000000" font-family="sans-serif" font-size="13" lengthAdjust="spacing" textLength="161" x="1619" y="645.9717">splitter = get_splitter(config)</text><line style="stroke:#181818;stroke-width:1.0;" x1="1612" x2="1654" y1="724.1797" y2="724.1797"/><line style="stroke:#181818;stroke-width:1.0;" x1="1654" x2="1654" y1="724.1797" y2="737.1797"/><line style="stroke:#181818;stroke-width:1.0;" x1="1613" x2="1654" y1="737.1797" y2="737.1797"/><polygon fill="#181818" points="1623,733.1797,1613,737.1797,1623,741.1797,1619,737.1797" style="stroke:#181818;stroke-width:1.0;"/><text fill="#000000" font-family="sans-serif" font-size="13" lengthAdjust="spacing" textLength="383" x="1619" y="719.3232">training_data, validation_data, testing_data = splitter.split(features)</text><path d="M40,782.1797 L113,782.1797 L113,790.5313 L103,800.5313 L40,800.5313 L40,782.1797 " fill="#EEEEEE" style="stroke:#000000;stroke-width:1.5;"/><rect fill="none" height="462.8125" style="stroke:#000000;stroke-width:1.5;" width="1194" x="40" y="782.1797"/><text fill="#000000" font-family="sans-serif" font-size="13" font-weight="bold" lengthAdjust="spacing" textLength="28" x="55" y="796.6748">loop</text><text fill="#000000" font-family="sans-serif" font-size="11" font-weight="bold" lengthAdjust="spacing" textLength="444" x="128" y="795.5986">[foreach (train, validation, test) in zip(training_data, validation_data, testing_data)]</text><polygon fill="#181818" points="1026,818.8828,1036,822.8828,1026,826.8828,1030,822.8828" style="stroke:#181818;stroke-width:1.0;"/><line style="stroke:#181818;stroke-width:1.0;" x1="539" x2="1032" y1="822.8828" y2="822.8828"/><text fill="#000000" font-family="sans-serif" font-size="13" lengthAdjust="spacing" textLength="98" x="546" y="818.0264">model = factory()</text><line style="stroke:#181818;stroke-width:1.0;" x1="1053" x2="1095" y1="853.2344" y2="853.2344"/><line style="stroke:#181818;stroke-width:1.0;" x1="1095" x2="1095" y1="853.2344" y2="866.2344"/><line style="stroke:#181818;stroke-width:1.0;" x1="1054" x2="1095" y1="866.2344" y2="866.2344"/><polygon fill="#181818" points="1064,862.2344,1054,866.2344,1064,870.2344,1060,866.2344" style="stroke:#181818;stroke-width:1.0;"/><text fill="#000000" font-family="sans-serif" font-size="13" lengthAdjust="spacing" textLength="159" x="1060" y="848.3779">builder = get_builder(config)</text><line style="stroke:#181818;stroke-width:1.0;" x1="1053" x2="1095" y1="926.5859" y2="926.5859"/><line style="stroke:#181818;stroke-width:1.0;" x1="1095" x2="1095" y1="926.5859" y2="939.5859"/><line style="stroke:#181818;stroke-width:1.0;" x1="1054" x2="1095" y1="939.5859" y2="939.5859"/><polygon fill="#181818" points="1064,935.5859,1054,939.5859,1064,943.5859,1060,939.5859" style="stroke:#181818;stroke-width:1.0;"/><text fill="#000000" font-family="sans-serif" font-size="13" lengthAdjust="spacing" textLength="162" x="1060" y="921.7295">model = builder.build(config)</text><line style="stroke:#181818;stroke-width:1.0;" x1="544" x2="586" y1="999.9375" y2="999.9375"/><line style="stroke:#181818;stroke-width:1.0;" x1="586" x2="586" y1="999.9375" y2="1012.9375"/><line style="stroke:#181818;stroke-width:1.0;" x1="545" x2="586" y1="1012.9375" y2="1012.9375"/><polygon fill="#181818" points="555,1008.9375,545,1012.9375,555,1016.9375,551,1012.9375" style="stroke:#181818;stroke-width:1.0;"/><text fill="#000000" font-family="sans-serif" font-size="13" lengthAdjust="spacing" textLength="485" x="551" y="995.0811">trained_model, training_stats, testing_stats = fit(model, train, validation, test, config)</text><polygon fill="#181818" points="116,1069.2891,106,1073.2891,116,1077.2891,112,1073.2891" style="stroke:#181818;stroke-width:1.0;"/><line style="stroke:#181818;stroke-width:1.0;" x1="110" x2="528" y1="1073.2891" y2="1073.2891"/><text fill="#000000" font-family="sans-serif" font-size="13" lengthAdjust="spacing" textLength="307" x="122" y="1068.4326">identifier = upload_stats(training_stats, testing_stats)</text><polygon fill="#181818" points="116,1129.6406,106,1133.6406,116,1137.6406,112,1133.6406" style="stroke:#181818;stroke-width:1.0;"/><line style="stroke:#181818;stroke-width:1.0;" x1="110" x2="528" y1="1133.6406" y2="1133.6406"/><text fill="#000000" font-family="sans-serif" font-size="13" lengthAdjust="spacing" textLength="233" x="122" y="1128.7842">identifier = upload_model(trained_model)</text><line style="stroke:#181818;stroke-width:1.0;" x1="544" x2="586" y1="1193.9922" y2="1193.9922"/><line style="stroke:#181818;stroke-width:1.0;" x1="586" x2="586" y1="1193.9922" y2="1206.9922"/><line style="stroke:#181818;stroke-width:1.0;" x1="545" x2="586" y1="1206.9922" y2="1206.9922"/><polygon fill="#181818" points="555,1202.9922,545,1206.9922,555,1210.9922,551,1206.9922" style="stroke:#181818;stroke-width:1.0;"/><text fill="#000000" font-family="sans-serif" font-size="13" lengthAdjust="spacing" textLength="88" x="551" y="1189.1357">store identifiers</text><polygon fill="#181818" points="337,1270.3438,327,1274.3438,337,1278.3438,333,1274.3438" style="stroke:#181818;stroke-width:1.0;"/><line style="stroke:#181818;stroke-width:1.0;stroke-dasharray:2.0,2.0;" x1="331" x2="533" y1="1274.3438" y2="1274.3438"/><text fill="#000000" font-family="sans-serif" font-size="13" lengthAdjust="spacing" textLength="55" x="343" y="1269.4873">identifiers</text><polygon fill="#181818" points="33.5,1300.6953,23.5,1304.6953,33.5,1308.6953,29.5,1304.6953" style="stroke:#181818;stroke-width:1.0;"/><line style="stroke:#181818;stroke-width:1.0;stroke-dasharray:2.0,2.0;" x1="27.5" x2="320" y1="1304.6953" y2="1304.6953"/><text fill="#000000" font-family="sans-serif" font-size="13" lengthAdjust="spacing" textLength="55" x="39.5" y="1299.8389">identifiers</text><!--SRC=[nLV9Rjim4BthAmO-AO3j3p2I00dIxL0WGDkpGKiZXuXAgI9j8FtwSfL9YTe2nCt1aOQFCs-6RqYAPA9gOFMBOxC2ma4z93Lf1CreJPY0rHCHv40umiFpDmrvUdoeAOIWJoolAogVlXAMbzQNCuRGdmsXZB8ZFDCQIyfGOvtL6Jl-lrSvbl1uecLkdMkBDOJOpqZ4gK7uWWmR8jFJU6jjZVqauKTTKY6iV_S2a2G9oGGz4u6wF93etyrzc-0EXAAVPXKhw75Fyvi4v5yxgwsEDhTlqeEkvGxCHBY31aL3yOnxOqb_gonRXu5JFRKrvnWPy2DTk3OdnpJYjLqpD-Bxw2xI3YWxLw-O5aJ9w6qDXQaoNqCtGX2bwoX0zQGW8_khlODUE5cvWnhScthPyNIKGo0W7-4FgDXTvUpyi4SK-roA9nehYDSJO1VP1Op6TZbQ2c76MmSwkdbzNikuTIJshboirbMr9Ei2HVRYbsxxvuJDsmJHKFG3xEAWHUNbcc5GwQqjfZHOJAhONxkoSx5T5KSxI6Pvgrl6j8z4PgGi3oHxlHyMyc3ZTEWDukPWOfk0svBjTYj7jNxMS2ObbK-qOjOWa0itB7FaQc8wlZS5ARf8FKHxAWHqkBEQPdIlWtl2l5YTKYtaz9uIoOdRi5OVpNqAKrPL3KNLIDWBf3edFnUJneqyXk0lhTCbEVSpcpvtJAlSkUv99wepsYZJFUfQqeZAlergQbdqkQquZwshZUMvrV__8zkvsDYgz-yvMbbexnVhItDnGGI_24k_Ae785lAXVSqERqBpBqgHL2VniNJjmKnpP88ML4lkL9SLoKr2wMYw7tTYB-Ig2vu6AtLTRdtPSBbDe4UMNt6raULw- -pVv6ytczXLFi9oJYmFqtuyw0ya5URorU6xZqtnREOZwny0]--></g></svg>